<svg width="15" height="16" viewBox="0 0 15 16" fill="none" xmlns="http://www.w3.org/2000/svg">
<path fill-rule="evenodd" clip-rule="evenodd" d="M6.70535 0.591197C7.22704 1.10269 7.08313 1.84453 6.87822 2.33516L6.87774 2.3363C6.587 3.02923 6.42682 3.7896 6.43277 4.59494L6.43278 4.59749C6.44468 7.59516 8.83096 10.1114 11.6947 10.2335C12.1202 10.252 12.5267 10.2213 12.9211 10.1476L13.0588 10.8849L12.9186 10.1481C13.4356 10.0497 14.2088 10.0594 14.5893 10.7086C14.7722 11.0208 14.7766 11.3612 14.7121 11.644C14.6485 11.9233 14.5101 12.191 14.3363 12.4366C12.8691 14.5294 10.4167 15.8663 7.66909 15.742C3.76319 15.5629 0.53651 12.3159 0.269987 8.34652C0.0266706 4.82808 2.02885 1.7441 4.9708 0.450102C5.44848 0.239072 6.18446 0.0804883 6.70535 0.591197ZM5.44261 1.88312C5.10869 2.7231 4.92585 3.63992 4.9328 4.60472C4.94841 8.36668 7.93097 11.5742 11.6305 11.7321C12.122 11.7535 12.5962 11.7231 13.0575 11.6466C11.8619 13.3037 9.91032 14.3418 7.73701 14.2436M5.44261 1.88312C3.14161 2.96025 1.57093 5.42033 1.76646 8.24371L1.76657 8.24535C1.98366 11.4836 4.62311 14.1005 7.73701 14.2436" fill="#73818E"/>
</svg>
