<svg width="22" height="22" viewBox="0 0 22 22" fill="none" xmlns="http://www.w3.org/2000/svg">
<path fill-rule="evenodd" clip-rule="evenodd" d="M11 5.25C7.82436 5.25 5.25 7.82436 5.25 11C5.25 14.1756 7.82436 16.75 11 16.75C14.1756 16.75 16.75 14.1756 16.75 11C16.75 7.82436 14.1756 5.25 11 5.25ZM3.75 11C3.75 6.99594 6.99594 3.75 11 3.75C15.0041 3.75 18.25 6.99594 18.25 11C18.25 15.0041 15.0041 18.25 11 18.25C6.99594 18.25 3.75 15.0041 3.75 11Z" fill="#FDAE51"/>
<path fill-rule="evenodd" clip-rule="evenodd" d="M11 0.25C11.4142 0.25 11.75 0.585786 11.75 1V1.08C11.75 1.49421 11.4142 1.83 11 1.83C10.5858 1.83 10.25 1.49421 10.25 1.08V1C10.25 0.585786 10.5858 0.25 11 0.25ZM3.32967 3.32967C3.62256 3.03678 4.09744 3.03678 4.39033 3.32967L4.52033 3.45967C4.81322 3.75256 4.81322 4.22744 4.52033 4.52033C4.22744 4.81322 3.75256 4.81322 3.45967 4.52033L3.32967 4.39033C3.03678 4.09744 3.03678 3.62256 3.32967 3.32967ZM18.6703 3.32967C18.9632 3.62256 18.9632 4.09744 18.6703 4.39033L18.5403 4.52033C18.2474 4.81322 17.7726 4.81322 17.4797 4.52033C17.1868 4.22744 17.1868 3.75256 17.4797 3.45967L17.6097 3.32967C17.9026 3.03678 18.3774 3.03678 18.6703 3.32967ZM0.25 11C0.25 10.5858 0.585786 10.25 1 10.25H1.08C1.49421 10.25 1.83 10.5858 1.83 11C1.83 11.4142 1.49421 11.75 1.08 11.75H1C0.585786 11.75 0.25 11.4142 0.25 11ZM20.17 11C20.17 10.5858 20.5058 10.25 20.92 10.25H21C21.4142 10.25 21.75 10.5858 21.75 11C21.75 11.4142 21.4142 11.75 21 11.75H20.92C20.5058 11.75 20.17 11.4142 20.17 11ZM4.52033 17.4797C4.81322 17.7726 4.81322 18.2474 4.52033 18.5403L4.39033 18.6703C4.09744 18.9632 3.62256 18.9632 3.32967 18.6703C3.03678 18.3774 3.03678 17.9026 3.32967 17.6097L3.45967 17.4797C3.75256 17.1868 4.22744 17.1868 4.52033 17.4797ZM17.4797 17.4797C17.7726 17.1868 18.2474 17.1868 18.5403 17.4797L18.6703 17.6097C18.9632 17.9026 18.9632 18.3774 18.6703 18.6703C18.3774 18.9632 17.9026 18.9632 17.6097 18.6703L17.4797 18.5403C17.1868 18.2474 17.1868 17.7726 17.4797 17.4797ZM11 20.17C11.4142 20.17 11.75 20.5058 11.75 20.92V21C11.75 21.4142 11.4142 21.75 11 21.75C10.5858 21.75 10.25 21.4142 10.25 21V20.92C10.25 20.5058 10.5858 20.17 11 20.17Z" fill="#FDAE51"/>
</svg>
